<?xml version="1.0" encoding="utf-8"?>
<!-- Generator: Adobe Illustrator 21.1.0, SVG Export Plug-In . SVG Version: 6.00 Build 0)  -->
<svg version="1.1" id="Layer_1" xmlns="http://www.w3.org/2000/svg" xmlns:xlink="http://www.w3.org/1999/xlink" x="0px" y="0px"
	 viewBox="0 0 396 306" style="enable-background:new 0 0 396 306;" xml:space="preserve">
<style type="text/css">
	.st0{fill:#B52621;}
	.st1{fill:#650102;}
	.st2{fill:#430304;}
	.st3{fill:#520001;}
	.st4{fill:#E7E8F6;}
	.st5{fill:#501511;}
	.st6{fill:#490206;}
	.st7{fill:#A72724;}
</style>
<g>
	<path class="st0" d="M32.9,214.8c0,0,15.7-22.1,43.3-26.7c27.6-4.6,47.9-7.4,107.7,5.5c59.9,12.9,136.3,31.3,159.3,35
		c23,3.7,46,3.7,44.2,0c-1.8-3.7-17.5-13.8-29.5-15.7c-12-1.8-63.5-9.2-63.5-9.2s7.4-20,0.8-44.6s-7.9-29.1-8.8-35.2
		c-0.9-6.2-11-18.1-13.7-20.3c-2.6-2.2-6.6-11.5-12.8-15.9c-6.2-4.4-59.9-28.6-70.5-31.3c-10.6-2.6-26.4-7.9-36.6-7.9
		s-39.7-6.2-73.1,10.6c-15.9,8.8-54.2,68.7-56.4,79.7c-2.2,11,3.1,43.2,4,50.7S32.9,214.8,32.9,214.8z"/>
	<g>
		<path class="st1" d="M102.3,80.7c6.7-3.1,35.7,3.1,42.3,3.5c6.6,0.4,20.3,8.4,34.4,20.7s18.9,17.2,18.5,22
			c-0.4,4.8-4.8,4-16.7,5.3c-11.9,1.3-37,1.8-46.3,1.8s-17.6-14.1-21.6-12.8c-4,1.3-9.7,8.4-12.3,3.5c-2.6-4.8-5.5-18.1-4-27.8
			C99.1,80.5,102.3,80.7,102.3,80.7z"/>
		<path class="st2" d="M103.8,83.3c0,0,12.4-1.3,17.8,8.4c5.4,9.7,1.7,18.8,1,20.8c-0.7,2-7.4,6.7-8.7-2.4c-1.3-9.1-0.7-13.1-5-14.8
			c-4.4-1.7-7.7-5-7.7-6.4C101.1,87.7,103.8,83.3,103.8,83.3z"/>
		<path class="st2" d="M162.2,116.1c5.6,3,18.4,11.2,22.1,11.2s9.4-2.6,3.4-8.2c-6-5.6-24.7-17.6-27-13.9
			C158.4,109,162.2,116.1,162.2,116.1z"/>
		<path class="st3" d="M161.3,148.2c13.1-3.3,47-20.3,55.5-16.3c8.5,3.9,52.3,27.4,47.7,29.4C259.9,163.2,161.3,148.2,161.3,148.2z"
			/>
		<path class="st4" d="M269.3,134l16.2,12.5c0,0,5.6,13.7,6.9,19.4c1.2,5.6,3.1,11.9,2.5,13.7c-0.6,1.9-8.7-8.1-12.5-6.2
			c-3.7,1.9-6.9,0.6-6.9,0.6L269.3,134z"/>
		<path class="st5" d="M63.6,111.6c0,0,14.3-1.1,15.4,11.1s-3.2,12.2-6.9,12.2c-3.7,0-2.7-11.1-6.9-11.7c-4.2-0.5-10.6-7.4-9-9.6
			S63.6,111.6,63.6,111.6z"/>
		<path class="st6" d="M35.5,150.8c0.5,9,0,16.4,9,19.1c9,2.7,19.6,8,23.9,3.2s7.4-22.8-5.8-25.5S35.5,150.8,35.5,150.8z"/>
		<path class="st7" d="M101.5,54.4c0,0,5.6,17.4,20.5,17.4s27.7,1.5,34.3-6.7C163,57,163,49.8,163,49.8s-31.8-2.6-36.9-2.1
			C121,48.3,101.5,54.4,101.5,54.4z"/>
	</g>
</g>
</svg>
